<?xml version="1.0" standalone="no"?>
<!DOCTYPE svg PUBLIC "-//W3C//DTD SVG 20010904//EN"
 "http://www.w3.org/TR/2001/REC-SVG-20010904/DTD/svg10.dtd">
<svg version="1.0" xmlns="http://www.w3.org/2000/svg"
 width="500.000000pt" height="500.000000pt" viewBox="0 0 500.000000 500.000000"
 preserveAspectRatio="xMidYMid meet">
<metadata>
Created by potrace 1.11, written by Peter Selinger 2001-2013
</metadata>
<g transform="translate(0.000000,500.000000) scale(0.100000,-0.100000)"
fill="#000000" stroke="none">
<path d="M2210 4673 c-34 -6 -41 -15 -50 -60 -4 -21 -24 -111 -45 -201 -20
-90 -34 -166 -31 -170 10 -9 99 -2 113 10 7 6 13 19 13 29 0 24 36 39 91 39
33 0 41 -4 49 -25 7 -19 17 -25 39 -25 53 0 91 12 91 29 0 15 -170 342 -192
369 -10 12 -30 13 -78 5z m74 -245 c-3 -4 -16 -8 -29 -8 -22 0 -24 3 -19 33
11 61 15 64 34 22 10 -21 16 -43 14 -47z"/>
<path d="M2692 4598 c-7 -46 -24 -134 -38 -197 -14 -62 -22 -117 -17 -121 16
-15 194 -42 239 -37 170 19 228 290 80 374 -41 22 -188 63 -228 63 -22 0 -25
-7 -36 -82z m200 -67 c29 -25 33 -36 32 -75 -2 -79 -51 -124 -121 -111 -39 7
-40 13 -16 131 17 81 19 84 45 84 16 0 41 -12 60 -29z"/>
<path d="M1705 4537 l-40 -23 3 -117 c2 -64 2 -117 0 -117 -3 0 -45 32 -94 70
-49 39 -92 70 -95 70 -4 0 -27 -11 -52 -25 l-45 -26 89 -176 c48 -97 91 -178
94 -181 7 -7 95 39 95 50 0 5 -14 36 -31 69 -17 34 -29 63 -27 65 2 2 34 -21
72 -51 93 -75 101 -70 92 59 l-6 101 25 -44 c14 -23 25 -49 25 -56 0 -7 8 -23
18 -35 l18 -22 51 26 52 26 -90 177 c-50 98 -96 179 -102 180 -7 2 -30 -7 -52
-20z"/>
<path d="M3532 4225 c-109 -147 -117 -164 -98 -209 28 -67 176 -166 229 -152
14 3 46 30 71 59 79 91 176 211 176 217 0 4 -21 21 -46 39 -54 40 -51 42 -144
-88 -75 -104 -88 -114 -120 -98 -61 31 -53 65 45 182 41 49 75 96 75 105 -1
16 -65 70 -84 70 -6 0 -53 -56 -104 -125z"/>
<path d="M2330 4189 c-519 -62 -975 -379 -1205 -838 -65 -131 -117 -270 -113
-303 3 -15 1 -25 -3 -22 -4 2 -10 -4 -12 -13 -73 -260 -69 -562 9 -838 34
-119 93 -255 110 -255 10 0 13 -7 8 -25 -5 -19 -2 -25 11 -25 11 0 15 -5 12
-14 -12 -29 118 -216 239 -344 78 -83 208 -192 229 -192 8 0 19 -8 24 -19 6
-10 24 -24 41 -31 16 -7 30 -16 30 -20 0 -10 225 -115 312 -144 161 -54 258
-69 463 -70 212 -1 279 8 451 60 254 76 469 208 660 405 227 235 355 476 425
799 19 90 22 134 22 310 0 126 -5 224 -12 255 -7 28 -16 68 -20 90 -69 354
-289 703 -586 929 -261 198 -554 302 -880 311 -77 2 -174 -1 -215 -6z m375
-64 c183 -26 393 -100 543 -191 229 -139 436 -355 558 -582 26 -48 54 -98 62
-112 9 -14 17 -32 19 -40 1 -8 16 -58 32 -112 54 -175 66 -263 66 -478 -1
-164 -4 -212 -23 -300 -40 -182 -131 -422 -175 -459 -9 -7 -33 -11 -54 -9 -29
2 -38 7 -37 21 1 9 -1 17 -5 18 -3 0 -42 4 -86 9 -151 15 -271 48 -383 103
-26 13 -69 30 -97 37 -49 13 -107 47 -132 78 -13 16 -12 37 12 182 8 47 17
106 20 131 5 41 9 47 33 52 16 3 33 16 39 29 108 223 115 242 110 297 -4 40
-13 61 -34 83 l-27 29 18 52 c30 82 33 192 7 268 -11 35 -27 97 -36 136 -35
168 -131 285 -330 400 -178 103 -269 129 -349 98 -41 -16 -53 -17 -101 -5
-114 27 -239 -15 -307 -105 -21 -28 -59 -87 -83 -131 -28 -51 -68 -104 -105
-140 -53 -51 -65 -70 -86 -134 -13 -41 -29 -103 -36 -136 l-11 -61 44 -84 c26
-47 55 -89 68 -95 43 -22 46 -32 10 -41 -46 -12 -52 -47 -11 -70 22 -13 34
-31 47 -72 9 -31 26 -72 37 -93 13 -23 19 -46 15 -64 -5 -30 10 -120 41 -244
22 -85 69 -193 100 -230 27 -32 29 -8 2 30 -49 68 -85 178 -105 322 -24 169
-32 154 88 161 62 3 121 12 151 24 54 20 68 40 106 157 38 117 80 136 113 51
61 -158 68 -165 177 -165 127 0 239 41 265 96 14 30 19 33 31 23 47 -39 74
-162 74 -339 0 -145 -16 -242 -53 -321 -15 -31 -27 -62 -27 -68 0 -7 -7 -28
-16 -47 -16 -33 -16 -36 3 -57 68 -77 100 -233 69 -340 -14 -47 -24 -63 -59
-88 -51 -37 -199 -109 -224 -109 -11 0 -24 -5 -29 -10 -11 -11 -150 -14 -199
-5 -41 8 -128 62 -179 111 -72 69 -76 84 -71 261 3 96 1 162 -5 173 -10 19
-13 18 -59 -15 -29 -21 -60 -35 -78 -35 -18 0 -63 -20 -112 -49 -45 -27 -94
-52 -109 -55 -15 -2 -70 -12 -122 -21 -146 -26 -313 -77 -371 -113 -20 -12
-39 -22 -43 -22 -3 0 -26 30 -50 68 -103 159 -175 342 -217 547 -27 130 -32
387 -10 520 47 293 140 506 322 736 202 254 472 430 791 515 160 42 396 55
573 29z m-459 -524 c-9 -8 -18 -12 -22 -9 -9 10 3 25 21 25 14 0 14 -2 1 -16z
m160 -219 c17 -15 36 -43 44 -62 19 -51 58 -99 96 -122 19 -11 34 -25 34 -32
0 -7 -20 -20 -46 -31 -25 -10 -54 -31 -64 -45 -22 -31 -56 -46 -122 -54 -40
-5 -51 -2 -75 18 -16 13 -52 32 -81 41 -59 19 -62 23 -86 87 -9 25 -24 52 -32
58 -17 15 -19 50 -1 50 6 0 26 7 42 16 17 9 52 23 79 31 27 8 65 25 85 37 69
43 85 45 127 8z m694 -52 c-24 -15 -36 -11 -14 4 10 8 21 12 24 10 2 -3 -2 -9
-10 -14z m-268 -276 l31 -16 -6 -91 c-3 -51 -8 -99 -12 -108 -15 -38 -118 -69
-228 -69 -72 0 -111 16 -115 48 -3 21 -1 23 31 17 24 -5 45 -1 68 11 36 18 76
25 150 25 26 0 55 6 65 13 17 13 17 15 1 40 -24 35 -91 68 -157 77 -68 9 -136
-18 -146 -57 -5 -20 -11 -23 -28 -18 -27 8 -25 6 -32 40 -5 25 -1 33 18 46 79
52 293 77 360 42z m-942 -24 c0 -5 -4 -10 -10 -10 -5 0 -10 5 -10 10 0 6 5 10
10 10 6 0 10 -4 10 -10z m380 -56 c6 -6 10 -24 8 -40 -3 -24 -5 -26 -18 -13
-34 32 -67 42 -116 33 -40 -7 -49 -13 -54 -34 -3 -14 -17 -31 -32 -37 -34 -17
-52 -39 -44 -58 4 -12 18 -16 58 -14 36 2 64 -3 87 -15 27 -14 39 -16 58 -7
13 6 31 11 39 11 13 0 13 -4 -1 -29 -22 -44 -103 -71 -210 -71 -103 0 -106 4
-98 116 7 103 32 151 82 160 20 3 41 7 46 10 22 8 185 -2 195 -12z m-160 -114
c0 -5 -5 -10 -11 -10 -5 0 -7 5 -4 10 3 6 8 10 11 10 2 0 4 -4 4 -10z m1425
-1080 c-3 -5 -11 -10 -16 -10 -6 0 -7 5 -4 10 3 6 11 10 16 10 6 0 7 -4 4 -10z
m-1215 -304 c0 -3 -4 -8 -10 -11 -5 -3 -10 -1 -10 4 0 6 5 11 10 11 6 0 10 -2
10 -4z m-750 -16 c0 -5 -7 -10 -15 -10 -8 0 -15 5 -15 10 0 6 7 10 15 10 8 0
15 -4 15 -10z m1350 -39 c0 -20 -13 -41 -21 -35 -15 9 -10 44 6 44 8 0 15 -4
15 -9z m32 -193 c-28 -28 -38 -18 -21 21 12 27 15 29 29 16 13 -13 12 -18 -8
-37z m-282 -56 c-1 -9 -14 -32 -29 -50 -26 -30 -31 -32 -50 -21 -16 11 -23 11
-33 1 -6 -6 -20 -12 -30 -12 -9 0 -22 -8 -27 -17 -9 -16 -10 -17 -11 -1 0 9
-9 18 -21 20 -21 3 -20 5 12 48 25 31 43 45 62 47 15 1 27 -2 27 -8 0 -13 31
-11 60 5 28 16 40 12 40 -12z m260 -11 c0 -5 -7 -11 -15 -15 -15 -5 -20 5 -8
17 9 10 23 9 23 -2z"/>
<path d="M2400 4035 c0 -8 5 -15 10 -15 6 0 10 7 10 15 0 8 -4 15 -10 15 -5 0
-10 -7 -10 -15z"/>
<path d="M2440 4035 c0 -8 5 -15 10 -15 6 0 10 7 10 15 0 8 -4 15 -10 15 -5 0
-10 -7 -10 -15z"/>
<path d="M2480 4035 c0 -8 5 -15 10 -15 6 0 10 7 10 15 0 8 -4 15 -10 15 -5 0
-10 -7 -10 -15z"/>
<path d="M2522 4039 c2 -6 8 -10 13 -10 5 0 11 4 13 10 2 6 -4 11 -13 11 -9 0
-15 -5 -13 -11z"/>
<path d="M2570 4035 c0 -8 5 -15 10 -15 6 0 10 7 10 15 0 8 -4 15 -10 15 -5 0
-10 -7 -10 -15z"/>
<path d="M2310 4025 c0 -8 5 -15 10 -15 6 0 10 7 10 15 0 8 -4 15 -10 15 -5 0
-10 -7 -10 -15z"/>
<path d="M2350 4030 c0 -5 4 -10 9 -10 6 0 13 5 16 10 3 6 -1 10 -9 10 -9 0
-16 -4 -16 -10z"/>
<path d="M2610 4030 c0 -5 5 -10 10 -10 6 0 10 5 10 10 0 6 -4 10 -10 10 -5 0
-10 -4 -10 -10z"/>
<path d="M2656 4031 c-4 -5 -2 -12 3 -15 5 -4 12 -2 15 3 4 5 2 12 -3 15 -5 4
-12 2 -15 -3z"/>
<path d="M2270 4020 c0 -5 5 -10 10 -10 6 0 10 5 10 10 0 6 -4 10 -10 10 -5 0
-10 -4 -10 -10z"/>
<path d="M2690 4020 c0 -5 7 -10 15 -10 8 0 15 5 15 10 0 6 -7 10 -15 10 -8 0
-15 -4 -15 -10z"/>
<path d="M2736 4022 c-3 -6 -1 -14 5 -17 15 -10 25 3 12 16 -7 7 -13 7 -17 1z"/>
<path d="M2185 4010 c-3 -5 1 -10 10 -10 9 0 13 5 10 10 -3 6 -8 10 -10 10 -2
0 -7 -4 -10 -10z"/>
<path d="M2230 4010 c0 -5 5 -10 10 -10 6 0 10 5 10 10 0 6 -4 10 -10 10 -5 0
-10 -4 -10 -10z"/>
<path d="M2780 4005 c0 -8 5 -15 10 -15 6 0 10 7 10 15 0 8 -4 15 -10 15 -5 0
-10 -7 -10 -15z"/>
<path d="M2825 3999 c-10 -15 3 -25 16 -12 7 7 7 13 1 17 -6 3 -14 1 -17 -5z"/>
<path d="M2145 3990 c3 -5 8 -10 11 -10 2 0 4 5 4 10 0 6 -5 10 -11 10 -5 0
-7 -4 -4 -10z"/>
<path d="M2866 3993 c-11 -11 -6 -23 9 -23 8 0 15 4 15 9 0 13 -16 22 -24 14z"/>
<path d="M2100 3980 c0 -5 5 -10 10 -10 6 0 10 5 10 10 0 6 -4 10 -10 10 -5 0
-10 -4 -10 -10z"/>
<path d="M2906 3983 c-11 -11 -6 -23 9 -23 8 0 15 4 15 9 0 13 -16 22 -24 14z"/>
<path d="M2060 3970 c0 -5 7 -10 16 -10 8 0 12 5 9 10 -3 6 -10 10 -16 10 -5
0 -9 -4 -9 -10z"/>
<path d="M2020 3955 c0 -8 5 -15 10 -15 6 0 10 7 10 15 0 8 -4 15 -10 15 -5 0
-10 -7 -10 -15z"/>
<path d="M2942 3959 c2 -6 8 -10 13 -10 5 0 11 4 13 10 2 6 -4 11 -13 11 -9 0
-15 -5 -13 -11z"/>
<path d="M2986 3953 c-11 -11 -6 -23 9 -23 8 0 15 4 15 9 0 13 -16 22 -24 14z"/>
<path d="M1980 3940 c0 -5 7 -10 16 -10 8 0 12 5 9 10 -3 6 -10 10 -16 10 -5
0 -9 -4 -9 -10z"/>
<path d="M1946 3933 c-11 -11 -6 -23 9 -23 8 0 15 4 15 9 0 13 -16 22 -24 14z"/>
<path d="M1906 3911 c-4 -5 -2 -12 3 -15 5 -4 12 -2 15 3 4 5 2 12 -3 15 -5 4
-12 2 -15 -3z"/>
<path d="M3062 3909 c2 -6 8 -10 13 -10 5 0 11 4 13 10 2 6 -4 11 -13 11 -9 0
-15 -5 -13 -11z"/>
<path d="M1862 3889 c2 -6 8 -10 13 -10 5 0 11 4 13 10 2 6 -4 11 -13 11 -9 0
-15 -5 -13 -11z"/>
<path d="M3100 3890 c0 -5 7 -10 15 -10 8 0 15 5 15 10 0 6 -7 10 -15 10 -8 0
-15 -4 -15 -10z"/>
<path d="M1825 3871 c-6 -11 9 -23 19 -14 9 9 7 23 -3 23 -6 0 -12 -4 -16 -9z"/>
<path d="M3140 3870 c0 -5 5 -10 10 -10 6 0 10 5 10 10 0 6 -4 10 -10 10 -5 0
-10 -4 -10 -10z"/>
<path d="M1790 3845 c0 -8 5 -15 10 -15 6 0 10 7 10 15 0 8 -4 15 -10 15 -5 0
-10 -7 -10 -15z"/>
<path d="M3172 3849 c2 -6 8 -10 13 -10 5 0 11 4 13 10 2 6 -4 11 -13 11 -9 0
-15 -5 -13 -11z"/>
<path d="M1756 3831 c-4 -7 -5 -15 -2 -18 9 -9 19 4 14 18 -4 11 -6 11 -12 0z"/>
<path d="M3212 3831 c2 -7 7 -12 11 -12 12 1 9 15 -3 20 -7 2 -11 -2 -8 -8z"/>
<path d="M3250 3805 c0 -8 5 -15 10 -15 6 0 10 7 10 15 0 8 -4 15 -10 15 -5 0
-10 -7 -10 -15z"/>
<path d="M1720 3800 c0 -5 5 -10 10 -10 6 0 10 5 10 10 0 6 -4 10 -10 10 -5 0
-10 -4 -10 -10z"/>
<path d="M1680 3776 c0 -9 7 -16 16 -16 9 0 14 5 12 12 -6 18 -28 21 -28 4z"/>
<path d="M3280 3780 c0 -5 7 -10 15 -10 8 0 15 5 15 10 0 6 -7 10 -15 10 -8 0
-15 -4 -15 -10z"/>
<path d="M3321 3761 c-10 -6 -10 -10 -1 -16 13 -8 24 -1 19 14 -3 6 -10 7 -18
2z"/>
<path d="M1640 3750 c0 -5 7 -10 15 -10 8 0 15 5 15 10 0 6 -7 10 -15 10 -8 0
-15 -4 -15 -10z"/>
<path d="M3350 3725 c0 -9 5 -15 11 -13 6 2 11 8 11 13 0 5 -5 11 -11 13 -6 2
-11 -4 -11 -13z"/>
<path d="M1610 3720 c0 -5 7 -10 15 -10 8 0 15 5 15 10 0 6 -7 10 -15 10 -8 0
-15 -4 -15 -10z"/>
<path d="M1586 3701 c-4 -7 -5 -15 -2 -18 9 -9 19 4 14 18 -4 11 -6 11 -12 0z"/>
<path d="M3386 3695 c4 -8 10 -12 15 -9 14 8 10 24 -6 24 -9 0 -12 -6 -9 -15z"/>
<path d="M3416 3683 c-11 -11 -6 -23 9 -23 8 0 15 4 15 9 0 13 -16 22 -24 14z"/>
<path d="M1550 3665 c0 -8 5 -15 10 -15 6 0 10 7 10 15 0 8 -4 15 -10 15 -5 0
-10 -7 -10 -15z"/>
<path d="M3446 3652 c-3 -6 -1 -14 5 -17 15 -10 25 3 12 16 -7 7 -13 7 -17 1z"/>
<path d="M1520 3635 c0 -8 5 -15 10 -15 6 0 10 7 10 15 0 8 -4 15 -10 15 -5 0
-10 -7 -10 -15z"/>
<path d="M3480 3616 c0 -9 5 -16 10 -16 6 0 10 4 10 9 0 6 -4 13 -10 16 -5 3
-10 -1 -10 -9z"/>
<path d="M1490 3605 c0 -8 5 -15 10 -15 6 0 10 7 10 15 0 8 -4 15 -10 15 -5 0
-10 -7 -10 -15z"/>
<path d="M1460 3575 c0 -8 5 -15 10 -15 6 0 10 7 10 15 0 8 -4 15 -10 15 -5 0
-10 -7 -10 -15z"/>
<path d="M3505 3580 c3 -5 10 -10 16 -10 5 0 9 5 9 10 0 6 -7 10 -16 10 -8 0
-12 -4 -9 -10z"/>
<path d="M3535 3551 c-6 -11 9 -23 19 -14 9 9 7 23 -3 23 -6 0 -12 -4 -16 -9z"/>
<path d="M1430 3540 c0 -5 7 -10 16 -10 8 0 12 5 9 10 -3 6 -10 10 -16 10 -5
0 -9 -4 -9 -10z"/>
<path d="M3566 3523 c-11 -11 -6 -23 9 -23 8 0 15 4 15 9 0 13 -16 22 -24 14z"/>
<path d="M1400 3510 c0 -5 7 -10 15 -10 8 0 15 5 15 10 0 6 -7 10 -15 10 -8 0
-15 -4 -15 -10z"/>
<path d="M1377 3484 c-8 -8 1 -24 14 -24 5 0 9 7 9 15 0 15 -12 20 -23 9z"/>
<path d="M3585 3480 c-3 -5 1 -10 9 -10 9 0 16 5 16 10 0 6 -4 10 -9 10 -6 0
-13 -4 -16 -10z"/>
<path d="M3612 3449 c2 -6 8 -10 13 -10 5 0 11 4 13 10 2 6 -4 11 -13 11 -9 0
-15 -5 -13 -11z"/>
<path d="M1352 3441 c2 -7 7 -12 11 -12 12 1 9 15 -3 20 -7 2 -11 -2 -8 -8z"/>
<path d="M1330 3405 c0 -8 5 -15 10 -15 6 0 10 7 10 15 0 8 -4 15 -10 15 -5 0
-10 -7 -10 -15z"/>
<path d="M3640 3410 c0 -5 5 -10 10 -10 6 0 10 5 10 10 0 6 -4 10 -10 10 -5 0
-10 -4 -10 -10z"/>
<path d="M3660 3375 c0 -9 5 -15 11 -13 6 2 11 8 11 13 0 5 -5 11 -11 13 -6 2
-11 -4 -11 -13z"/>
<path d="M1310 3365 c0 -8 5 -15 10 -15 6 0 10 7 10 15 0 8 -4 15 -10 15 -5 0
-10 -7 -10 -15z"/>
<path d="M3682 3339 c2 -6 8 -10 13 -10 5 0 11 4 13 10 2 6 -4 11 -13 11 -9 0
-15 -5 -13 -11z"/>
<path d="M1290 3330 c0 -5 5 -10 10 -10 6 0 10 5 10 10 0 6 -4 10 -10 10 -5 0
-10 -4 -10 -10z"/>
<path d="M3700 3300 c0 -5 7 -10 15 -10 8 0 15 5 15 10 0 6 -7 10 -15 10 -8 0
-15 -4 -15 -10z"/>
<path d="M1270 3289 c0 -5 5 -7 10 -4 6 3 10 8 10 11 0 2 -4 4 -10 4 -5 0 -10
-5 -10 -11z"/>
<path d="M3720 3260 c0 -5 4 -10 9 -10 6 0 13 5 16 10 3 6 -1 10 -9 10 -9 0
-16 -4 -16 -10z"/>
<path d="M1245 3250 c4 -6 11 -8 16 -5 14 9 11 15 -7 15 -8 0 -12 -5 -9 -10z"/>
<path d="M3745 3220 c4 -6 11 -8 16 -5 14 9 11 15 -7 15 -8 0 -12 -5 -9 -10z"/>
<path d="M1210 3180 c0 -5 5 -10 10 -10 6 0 10 5 10 10 0 6 -4 10 -10 10 -5 0
-10 -4 -10 -10z"/>
<path d="M1192 3141 c2 -7 7 -12 11 -12 12 1 9 15 -3 20 -7 2 -11 -2 -8 -8z"/>
<path d="M3780 3139 c0 -5 5 -7 10 -4 6 3 10 8 10 11 0 2 -4 4 -10 4 -5 0 -10
-5 -10 -11z"/>
<path d="M3795 3111 c-3 -5 -1 -12 5 -16 5 -3 10 1 10 9 0 18 -6 21 -15 7z"/>
<path d="M1175 3101 c-6 -11 9 -23 19 -14 9 9 7 23 -3 23 -6 0 -12 -4 -16 -9z"/>
<path d="M3810 3064 c0 -8 5 -12 10 -9 6 4 8 11 5 16 -9 14 -15 11 -15 -7z"/>
<path d="M1166 3061 c-4 -5 -2 -12 3 -15 5 -4 12 -2 15 3 4 5 2 12 -3 15 -5 4
-12 2 -15 -3z"/>
<path d="M1150 3015 c0 -9 5 -15 11 -13 6 2 11 8 11 13 0 5 -5 11 -11 13 -6 2
-11 -4 -11 -13z"/>
<path d="M3820 3020 c0 -5 5 -10 10 -10 6 0 10 5 10 10 0 6 -4 10 -10 10 -5 0
-10 -4 -10 -10z"/>
<path d="M1140 2981 c0 -6 5 -13 10 -16 6 -3 10 1 10 9 0 9 -4 16 -10 16 -5 0
-10 -4 -10 -9z"/>
<path d="M3830 2980 c0 -5 5 -10 10 -10 6 0 10 5 10 10 0 6 -4 10 -10 10 -5 0
-10 -4 -10 -10z"/>
<path d="M3840 2940 c0 -5 5 -10 10 -10 6 0 10 5 10 10 0 6 -4 10 -10 10 -5 0
-10 -4 -10 -10z"/>
<path d="M1130 2930 c0 -5 5 -10 10 -10 6 0 10 5 10 10 0 6 -4 10 -10 10 -5 0
-10 -4 -10 -10z"/>
<path d="M3850 2900 c0 -5 5 -10 10 -10 6 0 10 5 10 10 0 6 -4 10 -10 10 -5 0
-10 -4 -10 -10z"/>
<path d="M1120 2890 c0 -5 5 -10 10 -10 6 0 10 5 10 10 0 6 -4 10 -10 10 -5 0
-10 -4 -10 -10z"/>
<path d="M3856 2861 c-4 -5 -2 -12 3 -15 5 -4 12 -2 15 3 4 5 2 12 -3 15 -5 4
-12 2 -15 -3z"/>
<path d="M1112 2851 c2 -7 7 -12 11 -12 12 1 9 15 -3 20 -7 2 -11 -2 -8 -8z"/>
<path d="M1110 2806 c0 -9 5 -16 10 -16 6 0 10 4 10 9 0 6 -4 13 -10 16 -5 3
-10 -1 -10 -9z"/>
<path d="M3860 2810 c0 -5 4 -10 9 -10 6 0 13 5 16 10 3 6 -1 10 -9 10 -9 0
-16 -4 -16 -10z"/>
<path d="M1105 2769 c-10 -15 3 -25 16 -12 7 7 7 13 1 17 -6 3 -14 1 -17 -5z"/>
<path d="M3870 2770 c0 -5 5 -10 10 -10 6 0 10 5 10 10 0 6 -4 10 -10 10 -5 0
-10 -4 -10 -10z"/>
<path d="M3870 2730 c0 -5 7 -10 16 -10 8 0 12 5 9 10 -3 6 -10 10 -16 10 -5
0 -9 -4 -9 -10z"/>
<path d="M1100 2720 c0 -5 5 -10 10 -10 6 0 10 5 10 10 0 6 -4 10 -10 10 -5 0
-10 -4 -10 -10z"/>
<path d="M3876 2691 c-4 -5 -2 -12 3 -15 5 -4 12 -2 15 3 4 5 2 12 -3 15 -5 4
-12 2 -15 -3z"/>
<path d="M1100 2680 c0 -5 5 -10 10 -10 6 0 10 5 10 10 0 6 -4 10 -10 10 -5 0
-10 -4 -10 -10z"/>
<path d="M1100 2636 c0 -9 5 -16 10 -16 6 0 10 4 10 9 0 6 -4 13 -10 16 -5 3
-10 -1 -10 -9z"/>
<path d="M3875 2640 c3 -5 10 -10 16 -10 5 0 9 5 9 10 0 6 -7 10 -16 10 -8 0
-12 -4 -9 -10z"/>
<path d="M2437 2604 c-15 -15 -6 -24 24 -24 20 0 29 4 27 13 -5 14 -40 21 -51
11z"/>
<path d="M3870 2600 c0 -5 7 -10 15 -10 8 0 15 5 15 10 0 6 -7 10 -15 10 -8 0
-15 -4 -15 -10z"/>
<path d="M1100 2590 c0 -5 5 -10 10 -10 6 0 10 5 10 10 0 6 -4 10 -10 10 -5 0
-10 -4 -10 -10z"/>
<path d="M2307 2594 c-14 -14 -6 -24 19 -24 16 0 24 5 22 13 -5 14 -31 21 -41
11z"/>
<path d="M3875 2560 c-3 -5 1 -10 10 -10 9 0 13 5 10 10 -3 6 -8 10 -10 10 -2
0 -7 -4 -10 -10z"/>
<path d="M1100 2544 c0 -8 5 -12 10 -9 6 3 10 10 10 16 0 5 -4 9 -10 9 -5 0
-10 -7 -10 -16z"/>
<path d="M3875 2519 c-10 -15 3 -25 16 -12 7 7 7 13 1 17 -6 3 -14 1 -17 -5z"/>
<path d="M1100 2505 c0 -8 5 -15 10 -15 6 0 10 7 10 15 0 8 -4 15 -10 15 -5 0
-10 -7 -10 -15z"/>
<path d="M1105 2469 c-10 -15 3 -25 16 -12 7 7 7 13 1 17 -6 3 -14 1 -17 -5z"/>
<path d="M3870 2470 c0 -5 5 -10 10 -10 6 0 10 5 10 10 0 6 -4 10 -10 10 -5 0
-10 -4 -10 -10z"/>
<path d="M2420 2450 c-8 -5 -29 -7 -46 -4 -40 7 -77 -12 -133 -70 l-44 -45 34
-35 c44 -47 81 -64 161 -72 89 -9 149 12 217 75 28 26 51 52 51 57 0 11 -26
29 -110 71 -66 34 -103 40 -130 23z m98 -46 c52 -34 -2 -53 -153 -57 -71 -2
-90 1 -90 12 0 26 53 55 97 54 23 -1 49 2 57 7 19 12 57 4 89 -16z m34 -93
c-22 -39 -74 -56 -154 -48 -125 12 -157 46 -45 48 34 0 94 7 132 14 39 7 73
14 77 14 4 1 0 -12 -10 -28z"/>
<path d="M3862 2429 c2 -6 8 -10 13 -10 5 0 11 4 13 10 2 6 -4 11 -13 11 -9 0
-15 -5 -13 -11z"/>
<path d="M1110 2420 c0 -5 5 -10 10 -10 6 0 10 5 10 10 0 6 -4 10 -10 10 -5 0
-10 -4 -10 -10z"/>
<path d="M3857 2394 c-8 -8 1 -24 14 -24 5 0 9 7 9 15 0 15 -12 20 -23 9z"/>
<path d="M1115 2381 c-6 -11 9 -23 19 -14 9 9 7 23 -3 23 -6 0 -12 -4 -16 -9z"/>
<path d="M3855 2349 c-10 -15 3 -25 16 -12 7 7 7 13 1 17 -6 3 -14 1 -17 -5z"/>
<path d="M1120 2334 c0 -17 22 -14 28 4 2 7 -3 12 -12 12 -9 0 -16 -7 -16 -16z"/>
<path d="M3846 2313 c-11 -11 -6 -23 9 -23 8 0 15 4 15 9 0 13 -16 22 -24 14z"/>
<path d="M1130 2294 c0 -8 5 -12 10 -9 6 3 10 10 10 16 0 5 -4 9 -10 9 -5 0
-10 -7 -10 -16z"/>
<path d="M3835 2270 c-4 -6 -3 -16 3 -22 6 -6 12 -6 17 2 4 6 3 16 -3 22 -6 6
-12 6 -17 -2z"/>
<path d="M1146 2261 c-4 -7 -5 -15 -2 -18 9 -9 19 4 14 18 -4 11 -6 11 -12 0z"/>
<path d="M3820 2221 c0 -6 5 -13 10 -16 6 -3 10 1 10 9 0 9 -4 16 -10 16 -5 0
-10 -4 -10 -9z"/>
<path d="M1155 2210 c-3 -5 1 -10 9 -10 9 0 16 5 16 10 0 6 -4 10 -9 10 -6 0
-13 -4 -16 -10z"/>
<path d="M3810 2175 c0 -8 5 -15 10 -15 6 0 10 7 10 15 0 8 -4 15 -10 15 -5 0
-10 -7 -10 -15z"/>
<path d="M1160 2170 c0 -5 7 -10 15 -10 8 0 15 5 15 10 0 6 -7 10 -15 10 -8 0
-15 -4 -15 -10z"/>
<path d="M3796 2142 c-3 -6 -1 -14 5 -17 15 -10 25 3 12 16 -7 7 -13 7 -17 1z"/>
<path d="M1175 2130 c-3 -5 1 -10 9 -10 9 0 16 5 16 10 0 6 -4 10 -9 10 -6 0
-13 -4 -16 -10z"/>
<path d="M2120 2102 c0 -5 10 -17 21 -28 22 -19 22 -19 10 3 -12 24 -31 39
-31 25z"/>
<path d="M3780 2095 c0 -9 5 -15 11 -13 6 2 11 8 11 13 0 5 -5 11 -11 13 -6 2
-11 -4 -11 -13z"/>
<path d="M1190 2090 c0 -5 7 -10 15 -10 8 0 15 5 15 10 0 6 -7 10 -15 10 -8 0
-15 -4 -15 -10z"/>
<path d="M3765 2061 c-6 -11 9 -23 19 -14 9 9 7 23 -3 23 -6 0 -12 -4 -16 -9z"/>
<path d="M1210 2050 c0 -5 5 -10 10 -10 6 0 10 5 10 10 0 6 -4 10 -10 10 -5 0
-10 -4 -10 -10z"/>
<path d="M3750 2015 c0 -8 5 -15 10 -15 6 0 10 7 10 15 0 8 -4 15 -10 15 -5 0
-10 -7 -10 -15z"/>
<path d="M1230 2010 c0 -5 5 -10 10 -10 6 0 10 5 10 10 0 6 -4 10 -10 10 -5 0
-10 -4 -10 -10z"/>
<path d="M3730 1980 c0 -5 5 -10 10 -10 6 0 10 5 10 10 0 6 -4 10 -10 10 -5 0
-10 -4 -10 -10z"/>
<path d="M1250 1970 c0 -5 5 -10 10 -10 6 0 10 5 10 10 0 6 -4 10 -10 10 -5 0
-10 -4 -10 -10z"/>
<path d="M3710 1940 c0 -5 5 -10 10 -10 6 0 10 5 10 10 0 6 -4 10 -10 10 -5 0
-10 -4 -10 -10z"/>
<path d="M1270 1929 c0 -5 5 -7 10 -4 6 3 10 8 10 11 0 2 -4 4 -10 4 -5 0 -10
-5 -10 -11z"/>
<path d="M1287 1904 c-8 -8 1 -24 14 -24 5 0 9 7 9 15 0 15 -12 20 -23 9z"/>
<path d="M3690 1900 c0 -5 5 -10 10 -10 6 0 10 5 10 10 0 6 -4 10 -10 10 -5 0
-10 -4 -10 -10z"/>
<path d="M1310 1860 c0 -5 5 -10 10 -10 6 0 10 5 10 10 0 6 -4 10 -10 10 -5 0
-10 -4 -10 -10z"/>
<path d="M1335 1829 c-10 -15 3 -25 16 -12 7 7 7 13 1 17 -6 3 -14 1 -17 -5z"/>
<path d="M1360 1784 c0 -8 5 -12 10 -9 6 3 10 10 10 16 0 5 -4 9 -10 9 -5 0
-10 -7 -10 -16z"/>
<path d="M1092 4141 c-18 -22 -32 -45 -32 -50 0 -6 18 -55 40 -108 22 -53 38
-98 36 -100 -2 -2 -52 12 -111 31 -60 19 -112 33 -116 30 -4 -2 -21 -22 -38
-43 l-30 -38 148 -136 148 -136 39 40 39 40 -58 52 c-31 29 -57 55 -57 59 0 3
37 -8 82 -23 122 -43 129 -34 73 88 -19 42 -33 78 -31 80 2 2 27 -20 55 -49
35 -37 51 -48 51 -35 0 9 7 17 15 17 18 0 19 -11 3 -30 -7 -8 6 3 30 25 23 21
42 44 42 51 0 13 -83 84 -99 84 -6 0 -11 4 -11 9 0 9 -165 174 -179 179 -4 1
-22 -15 -39 -37z"/>
<path d="M4045 3869 c-38 -28 -112 -75 -162 -106 -51 -31 -93 -61 -93 -68 0
-6 14 -31 30 -54 l30 -41 65 45 c36 25 65 43 65 40 0 -3 -20 -36 -45 -73 -45
-66 -54 -95 -35 -107 6 -3 47 1 91 10 44 9 83 15 85 12 3 -3 -22 -21 -55 -42
-34 -20 -61 -41 -61 -46 0 -22 46 -89 61 -89 8 0 44 21 80 46 35 25 106 71
157 101 51 31 95 59 97 63 4 6 -26 54 -56 88 -6 7 -18 11 -25 8 -24 -9 -195
-28 -201 -22 -3 2 20 43 51 91 31 47 56 94 56 104 0 10 -15 34 -32 54 l-33 37
-70 -51z"/>
<path d="M609 3463 c-7 -16 -17 -39 -23 -52 -10 -22 -2 -32 139 -167 83 -79
155 -143 161 -144 7 0 22 21 34 46 l21 46 -22 24 c-22 23 -22 24 -5 69 23 59
41 77 72 69 22 -6 27 0 48 47 13 30 21 57 17 61 -7 8 -283 28 -379 28 -48 0
-53 -2 -63 -27z m91 3 c0 -3 -4 -8 -10 -11 -5 -3 -10 -1 -10 4 0 6 5 11 10 11
6 0 10 -2 10 -4z m114 -92 c21 -8 21 -43 0 -51 -10 -4 -27 6 -47 26 l-32 31
32 0 c17 0 38 -3 47 -6z"/>
<path d="M4410 3269 c-19 -5 -44 -14 -55 -19 -11 -5 -74 -21 -140 -35 -66 -15
-124 -30 -129 -35 -4 -5 7 -65 25 -137 l34 -128 48 -3 c60 -4 63 5 37 87 -25
79 -25 88 1 96 29 9 36 0 51 -70 l14 -60 44 3 c25 2 49 7 54 12 4 4 -1 36 -13
71 -24 68 -22 89 8 89 16 0 22 -13 36 -75 10 -41 21 -77 26 -80 4 -3 27 4 50
15 29 15 40 26 36 38 -47 166 -72 242 -81 241 -6 0 -27 -5 -46 -10z"/>
<path d="M458 2983 c-2 -5 -4 -33 -4 -63 l1 -55 65 -5 65 -5 -3 -60 c-3 -88
-1 -86 -81 -79 l-69 7 -7 -57 c-4 -31 -4 -60 -1 -63 4 -4 64 -10 134 -15 70
-4 156 -12 192 -17 36 -6 68 -7 73 -2 4 4 8 32 10 62 l2 54 -75 10 c-61 8 -75
13 -74 28 0 9 1 40 2 68 l2 52 80 -7 c78 -7 79 -7 85 17 4 13 5 41 3 63 l-3
39 -115 7 c-63 3 -144 11 -180 17 -77 13 -98 14 -102 4z"/>
<path d="M4177 2734 c-4 -4 -7 -31 -7 -61 l0 -53 70 0 c63 0 70 -2 70 -19 0
-24 -9 -30 -80 -57 -55 -21 -55 -21 -63 -74 -13 -79 0 -86 88 -45 l70 33 32
-29 c44 -38 92 -46 139 -23 68 34 79 59 82 200 2 68 0 124 -5 124 -4 0 -94 2
-199 5 -104 3 -193 2 -197 -1z m311 -142 c5 -32 -24 -72 -51 -72 -33 0 -47 19
-47 63 l0 38 48 -3 c40 -3 47 -6 50 -26z"/>
<path d="M729 2366 c-2 -2 -65 -16 -139 -31 -74 -15 -137 -29 -138 -30 -2 -2
2 -29 8 -60 14 -68 -3 -67 212 -14 96 24 110 21 123 -28 9 -39 -17 -60 -103
-79 -43 -9 -102 -22 -132 -29 l-55 -12 4 -39 c7 -84 10 -84 216 -35 167 41
180 52 172 156 -9 125 -59 205 -127 205 -20 0 -39 -2 -41 -4z"/>
<path d="M4035 1950 c-14 -27 -25 -53 -25 -57 0 -5 27 -19 61 -33 34 -13 63
-29 66 -36 2 -6 -10 -39 -26 -73 l-31 -61 32 -20 c52 -31 65 -26 98 40 17 34
37 60 45 60 30 0 28 -33 -4 -94 -17 -34 -31 -66 -31 -73 0 -17 78 -28 95 -13
8 7 15 17 15 23 0 5 23 55 51 110 27 55 46 103 42 107 -4 5 -48 25 -98 45 -49
20 -126 57 -171 81 -45 24 -84 44 -87 44 -4 0 -18 -22 -32 -50z"/>
<path d="M894 1846 c-43 -29 -118 -76 -166 -105 -49 -29 -88 -57 -88 -61 0
-22 43 -78 63 -84 12 -3 64 0 115 6 50 6 95 8 99 5 3 -4 -21 -48 -55 -99 l-61
-92 21 -36 c41 -68 37 -68 139 3 52 35 125 81 162 102 38 21 71 44 74 52 5 12
-40 93 -53 93 -9 0 -112 -68 -118 -79 -10 -16 -26 -13 -26 4 0 8 4 15 9 15 13
0 91 123 91 143 0 11 -8 17 -23 17 -24 0 -129 -17 -160 -26 -16 -5 -17 -3 -5
15 7 12 19 21 26 21 10 0 83 40 101 56 4 4 -46 91 -57 98 -5 3 -44 -19 -88
-48z m126 -30 c0 -11 -19 -15 -25 -6 -3 5 1 10 9 10 9 0 16 -2 16 -4z m-205
-136 c3 -5 1 -10 -4 -10 -6 0 -11 5 -11 10 0 6 2 10 4 10 3 0 8 -4 11 -10z"/>
<path d="M3827 1581 c-36 -40 -37 -42 -22 -71 15 -29 15 -30 -29 -76 -38 -39
-47 -44 -64 -35 -12 6 -25 11 -30 11 -13 0 -82 -72 -82 -85 0 -6 30 -24 68
-40 121 -50 316 -125 327 -125 14 0 75 65 75 80 0 16 -165 332 -188 360 l-18
22 -37 -41z m71 -235 c25 -42 20 -49 -18 -29 -38 18 -45 30 -30 48 18 22 26
19 48 -19z"/>
<path d="M3417 1210 c-31 -20 -45 -35 -41 -43 4 -6 18 -29 32 -50 24 -40 24
-67 -2 -67 -8 0 -37 18 -65 40 -28 22 -55 40 -61 40 -18 0 -101 -60 -95 -69 2
-5 32 -26 65 -47 l60 -39 -7 -52 c-5 -42 -2 -58 17 -87 12 -20 31 -43 43 -51
25 -18 99 -20 130 -4 68 34 177 106 177 116 0 6 -19 42 -42 79 -23 37 -65 110
-93 162 -27 53 -55 97 -60 99 -6 2 -32 -10 -58 -27z m91 -259 l22 -40 -22 -15
c-32 -23 -65 -20 -83 8 -19 28 -11 52 24 71 36 19 35 20 59 -24z"/>
<path d="M1712 1169 c3 -30 2 -31 -42 -33 -130 -5 -234 -148 -200 -271 49
-177 277 -212 378 -59 54 81 54 157 1 238 -25 38 -28 48 -19 66 14 26 2 44
-51 71 -56 28 -71 25 -67 -12z m17 -164 c33 -17 41 -33 41 -83 -1 -62 -56
-109 -115 -98 -47 9 -70 39 -70 93 0 38 5 49 33 74 36 32 69 36 111 14z"/>
<path d="M2828 975 c-94 -34 -140 -99 -140 -195 0 -193 205 -297 342 -174 53
48 74 107 67 186 -7 81 -43 133 -116 171 -60 30 -97 33 -153 12z m124 -132
c21 -19 36 -68 30 -100 -11 -57 -91 -93 -132 -60 -27 21 -50 60 -50 85 0 33
28 82 53 92 29 12 76 4 99 -17z"/>
<path d="M2182 943 c-78 -38 -131 -145 -116 -232 20 -114 132 -195 242 -177
121 19 207 181 158 297 -36 86 -100 129 -193 129 -33 0 -72 -7 -91 -17z m149
-122 c84 -84 -26 -226 -116 -148 -18 15 -28 36 -32 64 -5 39 -2 46 30 78 44
44 78 46 118 6z"/>
</g>
</svg>
